<?xml version="1.0" standalone="no"?>
<!DOCTYPE svg PUBLIC "-//W3C//DTD SVG 20010904//EN"
 "http://www.w3.org/TR/2001/REC-SVG-20010904/DTD/svg10.dtd">
<svg version="1.0" xmlns="http://www.w3.org/2000/svg"
 width="304.000000pt" height="304.000000pt" viewBox="0 0 304.000000 304.000000"
 preserveAspectRatio="xMidYMid meet">
<metadata>
Created by potrace 1.14, written by Peter Selinger 2001-2017
</metadata>
<g transform="translate(0.000000,304.000000) scale(0.100000,-0.100000)"
fill="#000000" stroke="none">
<path d="M1060 2680 l0 -40 -40 0 -40 0 0 -40 0 -40 -40 0 -40 0 0 -40 0 -40
-80 0 -80 0 0 -40 0 -40 -40 0 -40 0 0 -40 0 -40 -40 0 -40 0 0 -160 0 -160
-40 0 -40 0 0 -40 0 -40 -40 0 -40 0 0 -40 0 -40 40 0 40 0 0 -40 0 -40 80 0
80 0 0 -40 0 -40 40 0 40 0 0 -40 0 -40 80 0 80 0 0 40 0 40 40 0 40 0 0 -40
0 -40 40 0 40 0 0 -40 0 -40 40 0 40 0 0 -40 0 -40 -40 0 -40 0 0 -40 0 -40
-40 0 -40 0 0 -240 0 -240 80 0 80 0 0 -240 0 -240 160 0 160 0 0 200 0 200
40 0 40 0 0 -200 0 -200 160 0 160 0 0 240 0 240 80 0 80 0 0 240 0 240 -40 0
-40 0 0 40 0 40 -40 0 -40 0 0 40 0 40 40 0 40 0 0 40 0 40 40 0 40 0 0 40 0
40 40 0 40 0 0 -40 0 -40 80 0 80 0 0 40 0 40 40 0 40 0 0 40 0 40 40 0 40 0
0 280 0 280 -40 0 -40 0 0 80 0 80 -40 0 -40 0 0 40 0 40 -40 0 -40 0 0 40 0
40 -80 0 -80 0 0 40 0 40 -200 0 -200 0 0 -40 0 -40 -40 0 -40 0 0 -40 0 -40
-40 0 -40 0 0 40 0 40 -40 0 -40 0 0 40 0 40 -160 0 -160 0 0 -40z m320 -80
l0 -40 40 0 40 0 0 -40 0 -40 40 0 40 0 0 40 0 40 40 0 40 0 0 40 0 40 160 0
160 0 0 -40 0 -40 80 0 80 0 0 -40 0 -40 80 0 80 0 0 -80 0 -80 40 0 40 0 0
-280 0 -280 -40 0 -40 0 0 -40 0 -40 -80 0 -80 0 0 40 0 40 -40 0 -40 0 0 80
0 80 40 0 40 0 0 40 0 40 -80 0 -80 0 0 -200 0 -200 -40 0 -40 0 0 -40 0 -40
-360 0 -360 0 0 40 0 40 -40 0 -40 0 0 200 0 200 -80 0 -80 0 0 -40 0 -40 40
0 40 0 0 -80 0 -80 -40 0 -40 0 0 -40 0 -40 -80 0 -80 0 0 40 0 40 -40 0 -40
0 0 40 0 40 -80 0 -80 0 0 40 0 40 40 0 40 0 0 40 0 40 40 0 40 0 0 160 0 160
40 0 40 0 0 40 0 40 80 0 80 0 0 40 0 40 80 0 80 0 0 40 0 40 40 0 40 0 0 40
0 40 120 0 120 0 0 -40z m320 -1280 l0 -40 -40 0 -40 0 0 -80 0 -80 -120 0
-120 0 0 40 0 40 40 0 40 0 0 40 0 40 -80 0 -80 0 0 40 0 40 200 0 200 0 0
-40z m-560 -320 l0 -40 -40 0 -40 0 0 40 0 40 40 0 40 0 0 -40z m800 0 l0 -40
-40 0 -40 0 0 40 0 40 40 0 40 0 0 -40z m-560 -480 l0 -40 -80 0 -80 0 0 40 0
40 80 0 80 0 0 -40z m400 0 l0 -40 -80 0 -80 0 0 40 0 40 80 0 80 0 0 -40z"/>
<path d="M1300 2200 l0 -40 -80 0 -80 0 0 -40 0 -40 -40 0 -40 0 0 -40 0 -40
40 0 40 0 0 40 0 40 80 0 80 0 0 40 0 40 200 0 200 0 0 -40 0 -40 80 0 80 0 0
-40 0 -40 40 0 40 0 0 40 0 40 -40 0 -40 0 0 40 0 40 -80 0 -80 0 0 40 0 40
-200 0 -200 0 0 -40z"/>
<path d="M820 1840 l0 -80 40 0 40 0 0 80 0 80 -40 0 -40 0 0 -80z"/>
<path d="M1220 1840 l0 -80 80 0 80 0 0 80 0 80 -80 0 -80 0 0 -80z"/>
<path d="M1620 1840 l0 -80 80 0 80 0 0 80 0 80 -80 0 -80 0 0 -80z"/>
<path d="M2100 1840 l0 -80 40 0 40 0 0 80 0 80 -40 0 -40 0 0 -80z"/>
<path d="M1380 1640 l0 -40 120 0 120 0 0 40 0 40 -120 0 -120 0 0 -40z"/>
</g>
</svg>
